<svg width="223" height="63" viewBox="0 0 223 63" fill="none" xmlns="http://www.w3.org/2000/svg">
<path d="M179.311 21.4826L179.765 21.2743L179.515 20.7289L179.024 21.073L179.311 21.4826ZM170.51 27.6447L170.223 27.2351L169.967 27.4147L170.017 27.7238L170.51 27.6447ZM156.248 37.6312L156.532 37.2198L156.246 37.0222L155.961 37.2216L156.248 37.6312ZM147.997 43.4088L147.71 42.9992L147.192 43.3621L147.664 43.7824L147.997 43.4088ZM143.364 37.0568L142.907 37.2584L143.152 37.8157L143.651 37.4664L143.364 37.0568ZM152.189 30.8779L152.475 31.2875L152.727 31.1116L152.684 30.808L152.189 30.8779ZM166.313 20.9882L166.042 21.4084L166.324 21.5905L166.599 21.3978L166.313 20.9882ZM174.584 15.1964L174.871 15.606L175.397 15.2377L174.911 14.818L174.584 15.1964ZM1 47.592H0.5V48.092H1V47.592ZM11.088 47.592V48.092H11.588V47.592H11.088ZM1 11.192V10.692H0.5V11.192H1ZM30.068 15.092L29.7144 15.4456L29.7144 15.4456L30.068 15.092ZM25.804 34.904L25.6102 34.4431L25.0452 34.6806L25.3914 35.1864L25.804 34.904ZM34.488 47.592V48.092H35.4361L34.9006 47.3096L34.488 47.592ZM22.892 47.592L22.4757 47.8689L22.6241 48.092H22.892V47.592ZM15.56 36.568L15.9763 36.2911L15.8279 36.068H15.56V36.568ZM11.088 36.568V36.068H10.588V36.568H11.088ZM11.088 28.664H10.588V29.164H11.088V28.664ZM11.088 19.876V19.376H10.588V19.876H11.088ZM38.375 47.592H37.875V48.092H38.375V47.592ZM67.911 47.592V48.092H68.411V47.592H67.911ZM38.375 11.192V10.692H37.875V11.192H38.375ZM67.651 11.192H68.151V10.692H67.651V11.192ZM67.651 19.72V20.22H68.151V19.72H67.651ZM48.359 19.72V19.22H47.859V19.72H48.359ZM48.359 25.284H47.859V25.784H48.359V25.284ZM65.831 25.284H66.331V24.784H65.831V25.284ZM65.831 33.24V33.74H66.331V33.24H65.831ZM48.359 33.24V32.74H47.859V33.24H48.359ZM48.359 39.012H47.859V39.512H48.359V39.012ZM67.911 39.012H68.411V38.512H67.911V39.012ZM102.645 47.592V48.092H103.145V47.592H102.645ZM73.1094 47.592H72.6094V48.092H73.1094V47.592ZM102.645 39.012H103.145V38.512H102.645V39.012ZM83.0934 39.012H82.5934V39.512H83.0934V39.012ZM83.0934 33.24V32.74H82.5934V33.24H83.0934ZM100.565 33.24V33.74H101.065V33.24H100.565ZM100.565 25.284H101.065V24.784H100.565V25.284ZM83.0934 25.284H82.5934V25.784H83.0934V25.284ZM83.0934 19.72V19.22H82.5934V19.72H83.0934ZM102.385 19.72V20.22H102.885V19.72H102.385ZM102.385 11.192H102.885V10.692H102.385V11.192ZM73.1094 11.192V10.692H72.6094V11.192H73.1094ZM107.844 47.592H107.344V48.092H107.844V47.592ZM117.932 47.592V48.092H118.432V47.592H117.932ZM107.844 11.192V10.692H107.344V11.192H107.844ZM117.932 11.192H118.432V10.692H117.932V11.192ZM117.932 25.96H117.432V27.322L118.313 26.2835L117.932 25.96ZM130.464 11.192V10.692H130.232L130.083 10.8685L130.464 11.192ZM142.424 11.192L142.798 11.523L143.533 10.692H142.424V11.192ZM128.644 26.792L128.269 26.461L128.011 26.7531L128.231 27.0746L128.644 26.792ZM142.892 47.592V48.092H143.84L143.304 47.3094L142.892 47.592ZM130.828 47.592L130.414 47.8734L130.563 48.092H130.828V47.592ZM121.624 34.072L122.037 33.7906L121.681 33.2669L121.254 33.7354L121.624 34.072ZM117.932 38.128L117.562 37.7914L117.432 37.9345V38.128H117.932ZM186.199 47.592H185.699V48.092H186.199V47.592ZM196.183 47.592V48.092H196.683V47.592H196.183ZM186.199 11.192V10.692H185.699V11.192H186.199ZM195.611 11.192L196.006 10.8849L195.856 10.692H195.611V11.192ZM210.587 30.432L210.193 30.7391L211.087 31.8884V30.432H210.587ZM210.587 11.192V10.692H210.087V11.192H210.587ZM220.571 11.192H221.071V10.692H220.571V11.192ZM220.571 47.592V48.092H221.071V47.592H220.571ZM211.783 47.592L211.389 47.8998L211.539 48.092H211.783V47.592ZM196.183 27.624L196.577 27.3162L195.683 26.1718V27.624H196.183ZM163.796 7.676C163.52 7.676 163.296 7.45214 163.296 7.176H162.296C162.296 8.00442 162.968 8.676 163.796 8.676V7.676ZM170.376 7.676H163.796V8.676H170.376V7.676ZM170.876 7.176C170.876 7.45215 170.653 7.676 170.376 7.676V8.676C171.205 8.676 171.876 8.00443 171.876 7.176H170.876ZM170.876 2V7.176H171.876V2H170.876ZM170.376 1.5C170.653 1.5 170.876 1.72386 170.876 2H171.876C171.876 1.17158 171.205 0.5 170.376 0.5V1.5ZM163.796 1.5H170.376V0.5H163.796V1.5ZM163.296 2C163.296 1.72386 163.52 1.5 163.796 1.5V0.5C162.968 0.5 162.296 1.17158 162.296 2H163.296ZM163.296 7.176V2H162.296V7.176H163.296ZM152.304 7.676C152.028 7.676 151.804 7.45214 151.804 7.176H150.804C150.804 8.00442 151.476 8.676 152.304 8.676V7.676ZM158.884 7.676H152.304V8.676H158.884V7.676ZM159.384 7.176C159.384 7.45215 159.161 7.676 158.884 7.676V8.676C159.713 8.676 160.384 8.00443 160.384 7.176H159.384ZM159.384 2V7.176H160.384V2H159.384ZM158.884 1.5C159.161 1.5 159.384 1.72386 159.384 2H160.384C160.384 1.17158 159.713 0.5 158.884 0.5V1.5ZM152.304 1.5H158.884V0.5H152.304V1.5ZM151.804 2C151.804 1.72386 152.028 1.5 152.304 1.5V0.5C151.476 0.5 150.804 1.17158 150.804 2H151.804ZM151.804 7.176V2H150.804V7.176H151.804ZM180.496 29.392C180.496 39.5564 172.308 47.82 161.34 47.82V48.82C172.837 48.82 181.496 40.1316 181.496 29.392H180.496ZM180.496 29.288V29.392H181.496V29.288H180.496ZM178.856 21.6908C179.915 24.0032 180.496 26.5753 180.496 29.288H181.496C181.496 26.4312 180.884 23.7171 179.765 21.2743L178.856 21.6908ZM179.024 21.073L170.223 27.2351L170.797 28.0543L179.597 21.8921L179.024 21.073ZM171.148 29.392C171.148 28.7717 171.099 28.161 171.004 27.5656L170.017 27.7238C170.104 28.2666 170.148 28.8244 170.148 29.392H171.148ZM171.148 29.496V29.392H170.148V29.496H171.148ZM161.444 39.72C167.277 39.72 171.148 34.9779 171.148 29.496H170.148C170.148 34.5181 166.636 38.72 161.444 38.72V39.72ZM155.964 38.0426C157.491 39.0972 159.353 39.72 161.444 39.72V38.72C159.558 38.72 157.894 38.1601 156.532 37.2198L155.964 38.0426ZM155.961 37.2216L147.71 42.9992L148.283 43.8184L156.535 38.0408L155.961 37.2216ZM161.34 47.82C156.183 47.82 151.667 46.0034 148.329 43.0352L147.664 43.7824C151.189 46.9165 155.942 48.82 161.34 48.82V47.82ZM143.651 37.4664L152.475 31.2875L151.902 30.4684L143.077 36.6473L143.651 37.4664ZM151.584 29.392C151.584 29.9173 151.621 30.4372 151.694 30.9479L152.684 30.808C152.618 30.3435 152.584 29.8704 152.584 29.392H151.584ZM151.584 29.288V29.392H152.584V29.288H151.584ZM161.34 19.064C155.458 19.064 151.584 23.8042 151.584 29.288H152.584C152.584 24.2678 156.095 20.064 161.34 20.064V19.064ZM166.584 20.568C165.106 19.615 163.329 19.064 161.34 19.064V20.064C163.139 20.064 164.727 20.5608 166.042 21.4084L166.584 20.568ZM166.599 21.3978L174.871 15.606L174.297 14.7869L166.026 20.5786L166.599 21.3978ZM161.444 10.964C166.501 10.964 170.94 12.7099 174.257 15.5748L174.911 14.818C171.409 11.7933 166.736 9.964 161.444 9.964V10.964ZM142.288 29.392C142.288 19.2276 150.477 10.964 161.444 10.964V9.964C149.948 9.964 141.288 18.6524 141.288 29.392H142.288ZM142.288 29.496V29.392H141.288V29.496H142.288ZM143.822 36.8553C142.83 34.6049 142.288 32.1161 142.288 29.496H141.288C141.288 32.2552 141.859 34.8813 142.907 37.2584L143.822 36.8553ZM1 48.092H11.088V47.092H1V48.092ZM0.5 11.192V47.592H1.5V11.192H0.5ZM18.212 10.692H1V11.692H18.212V10.692ZM30.4216 14.7384C27.8541 12.171 23.9117 10.692 18.212 10.692V11.692C23.7443 11.692 27.3939 13.125 29.7144 15.4456L30.4216 14.7384ZM33.792 23.568C33.792 19.973 32.6616 16.9784 30.4216 14.7384L29.7144 15.4456C31.7384 17.4695 32.792 20.195 32.792 23.568H33.792ZM33.792 23.672V23.568H32.792V23.672H33.792ZM25.9978 35.3649C28.3565 34.3732 30.3107 32.915 31.6742 30.9584C33.0393 28.9995 33.792 26.57 33.792 23.672H32.792C32.792 26.39 32.0887 28.6145 30.8538 30.3866C29.6173 32.161 27.8275 33.5108 25.6102 34.4431L25.9978 35.3649ZM34.9006 47.3096L26.2166 34.6216L25.3914 35.1864L34.0754 47.8744L34.9006 47.3096ZM22.892 48.092H34.488V47.092H22.892V48.092ZM15.1437 36.8449L22.4757 47.8689L23.3083 47.3151L15.9763 36.2911L15.1437 36.8449ZM11.088 37.068H15.56V36.068H11.088V37.068ZM11.588 47.592V36.568H10.588V47.592H11.588ZM11.588 28.664V19.876H10.588V28.664H11.588ZM17.796 28.164H11.088V29.164H17.796V28.164ZM22.704 24.348C22.704 25.5347 22.2565 26.4656 21.4542 27.1109C20.6392 27.7663 19.41 28.164 17.796 28.164V29.164C19.562 29.164 21.0369 28.7297 22.0808 27.8901C23.1375 27.0404 23.704 25.8133 23.704 24.348H22.704ZM22.704 24.244V24.348H23.704V24.244H22.704ZM17.744 20.376C19.3448 20.376 20.587 20.7275 21.4177 21.3647C22.2284 21.9866 22.704 22.9236 22.704 24.244H23.704C23.704 22.6524 23.1136 21.4054 22.0263 20.5713C20.959 19.7525 19.4712 19.376 17.744 19.376V20.376ZM11.088 20.376H17.744V19.376H11.088V20.376ZM38.375 48.092H67.911V47.092H38.375V48.092ZM37.875 11.192V47.592H38.875V11.192H37.875ZM67.651 10.692H38.375V11.692H67.651V10.692ZM68.151 19.72V11.192H67.151V19.72H68.151ZM48.359 20.22H67.651V19.22H48.359V20.22ZM48.859 25.284V19.72H47.859V25.284H48.859ZM65.831 24.784H48.359V25.784H65.831V24.784ZM66.331 33.24V25.284H65.331V33.24H66.331ZM48.359 33.74H65.831V32.74H48.359V33.74ZM48.859 39.012V33.24H47.859V39.012H48.859ZM67.911 38.512H48.359V39.512H67.911V38.512ZM68.411 47.592V39.012H67.411V47.592H68.411ZM102.645 47.092H73.1094V48.092H102.645V47.092ZM102.145 39.012V47.592H103.145V39.012H102.145ZM83.0934 39.512H102.645V38.512H83.0934V39.512ZM82.5934 33.24V39.012H83.5934V33.24H82.5934ZM100.565 32.74H83.0934V33.74H100.565V32.74ZM100.065 25.284V33.24H101.065V25.284H100.065ZM83.0934 25.784H100.565V24.784H83.0934V25.784ZM82.5934 19.72V25.284H83.5934V19.72H82.5934ZM102.385 19.22H83.0934V20.22H102.385V19.22ZM101.885 11.192V19.72H102.885V11.192H101.885ZM73.1094 11.692H102.385V10.692H73.1094V11.692ZM73.6094 47.592V11.192H72.6094V47.592H73.6094ZM107.844 48.092H117.932V47.092H107.844V48.092ZM107.344 11.192V47.592H108.344V11.192H107.344ZM117.932 10.692H107.844V11.692H117.932V10.692ZM118.432 25.96V11.192H117.432V25.96H118.432ZM130.083 10.8685L117.551 25.6365L118.313 26.2835L130.845 11.5155L130.083 10.8685ZM142.424 10.692H130.464V11.692H142.424V10.692ZM129.018 27.123L142.798 11.523L142.049 10.861L128.269 26.461L129.018 27.123ZM143.304 47.3094L129.056 26.5094L128.231 27.0746L142.479 47.8746L143.304 47.3094ZM130.828 48.092H142.892V47.092H130.828V48.092ZM121.21 34.3534L130.414 47.8734L131.241 47.3106L122.037 33.7906L121.21 34.3534ZM118.302 38.4646L121.994 34.4086L121.254 33.7354L117.562 37.7914L118.302 38.4646ZM118.432 47.592V38.128H117.432V47.592H118.432ZM186.199 48.092H196.183V47.092H186.199V48.092ZM185.699 11.192V47.592H186.699V11.192H185.699ZM195.611 10.692H186.199V11.692H195.611V10.692ZM210.982 30.1249L196.006 10.8849L195.217 11.4991L210.193 30.7391L210.982 30.1249ZM210.087 11.192V30.432H211.087V11.192H210.087ZM220.571 10.692H210.587V11.692H220.571V10.692ZM221.071 47.592V11.192H220.071V47.592H221.071ZM211.783 48.092H220.571V47.092H211.783V48.092ZM195.789 27.9318L211.389 47.8998L212.177 47.2842L196.577 27.3162L195.789 27.9318ZM196.683 47.592V27.624H195.683V47.592H196.683Z" fill="white"/>
<rect x="1.5" y="56.5" width="221" height="6" rx="1.5" stroke="white"/>
</svg>
