<svg width="138" height="98" viewBox="0 0 138 98" fill="none" xmlns="http://www.w3.org/2000/svg">
<path d="M0.202759 78.6964H5.69594C5.9639 81.8114 8.07409 84.2566 12.328 84.2566C16.1464 84.2566 18.4575 82.3808 18.4575 79.5338C18.4575 76.8877 16.6153 75.6818 13.3328 74.9114L9.07894 74.0071C4.45663 73.0022 0.973148 70.0212 0.973148 65.1644C0.973148 59.8052 5.72944 56.1207 11.926 56.1207C18.491 56.1207 22.7114 59.5707 23.0799 64.662H17.7542C17.1178 62.2838 15.1415 60.877 11.926 60.877C8.54302 60.877 6.19837 62.7193 6.19837 65.0639C6.19837 67.4086 8.20807 68.8153 11.6916 69.5857L15.9119 70.4901C20.5342 71.495 23.7163 74.3085 23.7163 79.1988C23.7163 85.4289 19.027 89.1468 12.3615 89.1468C4.82507 89.1133 0.671689 85.0269 0.202759 78.6964ZM43.3779 97.7886V88.6779L43.7463 84.692H43.3779C42.105 87.5726 39.4589 89.1468 35.875 89.1468C30.0803 89.1468 25.7595 84.424 25.7595 77.1891C25.7595 69.9542 30.0803 65.2314 35.875 65.2314C39.4254 65.2314 41.9376 66.9061 43.3779 69.4853H43.7463V65.6668H48.5026V97.822H43.3779V97.7886ZM43.5788 77.1556C43.5788 72.5333 40.7317 69.8202 37.2818 69.8202C33.8318 69.8202 30.9847 72.5333 30.9847 77.1556C30.9847 81.7779 33.8318 84.491 37.2818 84.491C40.7317 84.491 43.5788 81.7779 43.5788 77.1556ZM52.321 79.5338V65.6333H57.4458V79.0648C57.4458 82.7158 59.1875 84.4575 62.1351 84.4575C65.719 84.4575 68.0637 81.8784 68.0637 77.8925V65.6333H73.1884V88.6444H68.4321V83.8881H68.0637C66.9249 86.9362 64.4797 89.1133 60.6613 89.1133C55.1681 89.1133 52.321 85.5964 52.321 79.5338ZM76.3035 82.2469C76.3035 77.926 79.318 75.4139 84.6772 75.1124L91.0078 74.7105V72.9017C91.0078 70.7581 89.4335 69.4518 86.6534 69.4518C84.0743 69.4518 82.567 70.7581 82.1651 72.6003H77.0404C77.5763 67.911 81.4617 65.2314 86.6534 65.2314C92.5486 65.2314 96.1325 67.7435 96.1325 72.6003V88.6779H91.3762V84.424H91.0078C89.936 87.2711 87.6918 89.1468 83.3709 89.1468C79.2175 89.1133 76.3035 86.3332 76.3035 82.2469ZM91.0078 79.3998V78.194L85.8496 78.5624C83.0695 78.7299 81.7967 79.7682 81.7967 81.8449C81.7967 83.5867 83.237 84.8595 85.2467 84.8595C88.8976 84.826 91.0078 82.5148 91.0078 79.3998ZM99.951 88.6779V65.6668H104.707V70.0882H105.076C105.746 67.0736 108.057 65.6668 111.473 65.6668H113.818V70.2556H110.904C107.588 70.2556 105.109 72.3993 105.109 76.5192V88.6444L99.951 88.6779ZM137.264 78.0935H119.78C120.048 82.3138 123.029 84.692 126.312 84.692C129.092 84.692 130.833 83.5532 131.838 81.6774H136.929C135.523 86.3667 131.436 89.0798 126.278 89.0798C119.479 89.0798 114.722 83.9886 114.722 77.1221C114.722 70.2556 119.613 65.1644 126.312 65.1644C133.044 65.1644 137.465 69.7867 137.465 75.5478C137.432 76.7202 137.331 77.2896 137.264 78.0935ZM132.341 74.543C132.173 71.361 129.494 69.1838 126.278 69.1838C123.23 69.1838 120.651 71.1265 120.014 74.543H132.341Z" fill="white"/>
<path d="M85.6318 0.80658H52.0697C47.4474 0.80658 43.6625 4.55802 43.6625 9.21383V42.7424C43.6625 47.3982 47.4474 51.1496 52.0697 51.1496H85.5983C90.2541 51.1496 94.0055 47.3647 94.0055 42.7424V9.21383C94.039 4.55802 90.2876 0.80658 85.6318 0.80658ZM84.8949 39.3594C84.8949 40.8331 83.689 42.0055 82.2488 42.0055H55.4862C54.0124 42.0055 52.8401 40.7996 52.8401 39.3594V12.6303C52.8401 11.1565 54.0459 9.98422 55.4862 9.98422H82.2153C83.689 9.98422 84.8614 11.19 84.8614 12.6303V39.3594H84.8949ZM63.4915 32.8278C62.6542 32.8278 61.9508 32.1579 61.9508 31.2871V20.6356C61.9508 19.7983 62.6207 19.0949 63.4915 19.0949H74.1765C75.0138 19.0949 75.7172 19.7648 75.7172 20.6356V31.3206C75.7172 32.1579 75.0473 32.8613 74.1765 32.8613L63.4915 32.8278Z" fill="white"/>
</svg>
